solid OpenSCAD_Model
  facet normal 0.7730104533627371 0.6343932841636454 0
    outer loop
      vertex -1.879858660950843 -1.2560813995549314 4
      vertex -1.5986883791814732 -1.5986883791814732 -10
      vertex -1.879858660950843 -1.2560813995549314 -10
    endloop
  endfacet
  facet normal 0.6343932841636454 0.7730104533627371 0
    outer loop
      vertex -1.5986883791814732 -1.5986883791814732 4
      vertex -1.2560813995549314 -1.879858660950843 -10
      vertex -1.5986883791814732 -1.5986883791814732 -10
    endloop
  endfacet
  facet normal 0.8819212643483552 0.47139673682599725 0
    outer loop
      vertex -2.0887870286167542 -0.8652039161620579 4
      vertex -1.879858660950843 -1.2560813995549314 -10
      vertex -2.0887870286167542 -0.8652039161620579 -10
    endloop
  endfacet
  facet normal 0.9951847266721968 0.09801714032956113 0
    outer loop
      vertex -2.2608867878467005 0 4
      vertex -2.217444482178185 -0.44107713148302263 -10
      vertex -2.2608867878467005 0 -10
    endloop
  endfacet
  facet normal 0.956940335732209 0.29028467725446216 0
    outer loop
      vertex -2.217444482178185 -0.44107713148302263 4
      vertex -2.0887870286167542 -0.8652039161620579 -10
      vertex -2.217444482178185 -0.44107713148302263 -10
    endloop
  endfacet
  facet normal 0.47139673682599725 0.8819212643483552 0
    outer loop
      vertex -1.2560813995549314 -1.879858660950843 4
      vertex -0.8652039161620579 -2.0887870286167542 -10
      vertex -1.2560813995549314 -1.879858660950843 -10
    endloop
  endfacet
  facet normal 0.29028467725446216 0.956940335732209 0
    outer loop
      vertex -0.8652039161620579 -2.0887870286167542 4
      vertex -0.44107713148302263 -2.217444482178185 -10
      vertex -0.8652039161620579 -2.0887870286167542 -10
    endloop
  endfacet
  facet normal 0.09801714032956113 0.9951847266721968 0
    outer loop
      vertex -0.44107713148302263 -2.217444482178185 4
      vertex 0 -2.2608867878467005 -10
      vertex -0.44107713148302263 -2.217444482178185 -10
    endloop
  endfacet
  facet normal 0.7730104533627371 0.6343932841636454 0
    outer loop
      vertex -1.5986883791814732 -1.5986883791814732 4
      vertex -1.5986883791814732 -1.5986883791814732 -10
      vertex -1.879858660950843 -1.2560813995549314 4
    endloop
  endfacet
  facet normal 0.6343932841636454 0.7730104533627371 0
    outer loop
      vertex -1.5986883791814732 -1.5986883791814732 4
      vertex -1.2560813995549314 -1.879858660950843 4
      vertex -1.2560813995549314 -1.879858660950843 -10
    endloop
  endfacet
  facet normal 0.8819212643483552 0.47139673682599725 0
    outer loop
      vertex -2.0887870286167542 -0.8652039161620579 4
      vertex -1.879858660950843 -1.2560813995549314 4
      vertex -1.879858660950843 -1.2560813995549314 -10
    endloop
  endfacet
  facet normal 0.956940335732209 0.29028467725446216 0
    outer loop
      vertex -2.0887870286167542 -0.8652039161620579 4
      vertex -2.0887870286167542 -0.8652039161620579 -10
      vertex -2.217444482178185 -0.44107713148302263 4
    endloop
  endfacet
  facet normal 0.9951847266721968 0.09801714032956113 0
    outer loop
      vertex -2.217444482178185 -0.44107713148302263 4
      vertex -2.217444482178185 -0.44107713148302263 -10
      vertex -2.2608867878467005 0 4
    endloop
  endfacet
  facet normal 0.47139673682599725 0.8819212643483552 0
    outer loop
      vertex -1.2560813995549314 -1.879858660950843 4
      vertex -0.8652039161620579 -2.0887870286167542 4
      vertex -0.8652039161620579 -2.0887870286167542 -10
    endloop
  endfacet
  facet normal 0.29028467725446216 0.956940335732209 0
    outer loop
      vertex -0.8652039161620579 -2.0887870286167542 4
      vertex -0.44107713148302263 -2.217444482178185 4
      vertex -0.44107713148302263 -2.217444482178185 -10
    endloop
  endfacet
  facet normal 0.09801714032956113 0.9951847266721968 0
    outer loop
      vertex -0.44107713148302263 -2.217444482178185 4
      vertex 0 -2.2608867878467005 4
      vertex 0 -2.2608867878467005 -10
    endloop
  endfacet
  facet normal 0.9951847266721968 -0.09801714032956113 0
    outer loop
      vertex -2.217444482178185 0.44107713148302263 4
      vertex -2.2608867878467005 0 -10
      vertex -2.217444482178185 0.44107713148302263 -10
    endloop
  endfacet
  facet normal 0.956940335732209 -0.29028467725446216 0
    outer loop
      vertex -2.0887870286167542 0.8652039161620579 4
      vertex -2.217444482178185 0.44107713148302263 -10
      vertex -2.0887870286167542 0.8652039161620579 -10
    endloop
  endfacet
  facet normal 0.8819212643483552 -0.47139673682599725 0
    outer loop
      vertex -1.879858660950843 1.2560813995549314 4
      vertex -2.0887870286167542 0.8652039161620579 -10
      vertex -1.879858660950843 1.2560813995549314 -10
    endloop
  endfacet
  facet normal 0.7730104533627371 -0.6343932841636454 0
    outer loop
      vertex -1.5986883791814732 1.5986883791814732 4
      vertex -1.879858660950843 1.2560813995549314 -10
      vertex -1.5986883791814732 1.5986883791814732 -10
    endloop
  endfacet
  facet normal 0.6343932841636454 -0.7730104533627371 0
    outer loop
      vertex -1.2560813995549314 1.879858660950843 4
      vertex -1.5986883791814732 1.5986883791814732 -10
      vertex -1.2560813995549314 1.879858660950843 -10
    endloop
  endfacet
  facet normal 0.47139673682599725 -0.8819212643483552 0
    outer loop
      vertex -0.8652039161620579 2.0887870286167542 4
      vertex -1.2560813995549314 1.879858660950843 -10
      vertex -0.8652039161620579 2.0887870286167542 -10
    endloop
  endfacet
  facet normal 0.29028467725446216 -0.956940335732209 0
    outer loop
      vertex -0.44107713148302263 2.217444482178185 4
      vertex -0.8652039161620579 2.0887870286167542 -10
      vertex -0.44107713148302263 2.217444482178185 -10
    endloop
  endfacet
  facet normal 0.09801714032956113 -0.9951847266721968 0
    outer loop
      vertex 0 2.2608867878467005 4
      vertex -0.44107713148302263 2.217444482178185 -10
      vertex 0 2.2608867878467005 -10
    endloop
  endfacet
  facet normal 0.9951847266721968 -0.09801714032956113 0
    outer loop
      vertex -2.2608867878467005 0 4
      vertex -2.2608867878467005 0 -10
      vertex -2.217444482178185 0.44107713148302263 4
    endloop
  endfacet
  facet normal 0.956940335732209 -0.29028467725446216 0
    outer loop
      vertex -2.217444482178185 0.44107713148302263 4
      vertex -2.217444482178185 0.44107713148302263 -10
      vertex -2.0887870286167542 0.8652039161620579 4
    endloop
  endfacet
  facet normal 0.8819212643483552 -0.47139673682599725 0
    outer loop
      vertex -2.0887870286167542 0.8652039161620579 4
      vertex -2.0887870286167542 0.8652039161620579 -10
      vertex -1.879858660950843 1.2560813995549314 4
    endloop
  endfacet
  facet normal 0.7730104533627371 -0.6343932841636454 0
    outer loop
      vertex -1.879858660950843 1.2560813995549314 4
      vertex -1.879858660950843 1.2560813995549314 -10
      vertex -1.5986883791814732 1.5986883791814732 4
    endloop
  endfacet
  facet normal 0.6343932841636454 -0.7730104533627371 0
    outer loop
      vertex -1.5986883791814732 1.5986883791814732 4
      vertex -1.5986883791814732 1.5986883791814732 -10
      vertex -1.2560813995549314 1.879858660950843 4
    endloop
  endfacet
  facet normal 0.47139673682599725 -0.8819212643483552 0
    outer loop
      vertex -1.2560813995549314 1.879858660950843 4
      vertex -1.2560813995549314 1.879858660950843 -10
      vertex -0.8652039161620579 2.0887870286167542 4
    endloop
  endfacet
  facet normal 0.29028467725446216 -0.956940335732209 0
    outer loop
      vertex -0.8652039161620579 2.0887870286167542 4
      vertex -0.8652039161620579 2.0887870286167542 -10
      vertex -0.44107713148302263 2.217444482178185 4
    endloop
  endfacet
  facet normal 0.09801714032956113 -0.9951847266721968 0
    outer loop
      vertex -0.44107713148302263 2.217444482178185 4
      vertex -0.44107713148302263 2.217444482178185 -10
      vertex 0 2.2608867878467005 4
    endloop
  endfacet
  facet normal -0.09801714032956113 0.9951847266721968 0
    outer loop
      vertex 0 -2.2608867878467005 4
      vertex 0.44107713148302263 -2.217444482178185 -10
      vertex 0 -2.2608867878467005 -10
    endloop
  endfacet
  facet normal -0.29028467725446216 0.956940335732209 0
    outer loop
      vertex 0.44107713148302263 -2.217444482178185 4
      vertex 0.8652039161620579 -2.0887870286167542 -10
      vertex 0.44107713148302263 -2.217444482178185 -10
    endloop
  endfacet
  facet normal -0.47139673682599725 0.8819212643483552 0
    outer loop
      vertex 0.8652039161620579 -2.0887870286167542 4
      vertex 1.2560813995549314 -1.879858660950843 -10
      vertex 0.8652039161620579 -2.0887870286167542 -10
    endloop
  endfacet
  facet normal -0.6343932841636454 0.7730104533627371 0
    outer loop
      vertex 1.2560813995549314 -1.879858660950843 4
      vertex 1.5986883791814732 -1.5986883791814732 -10
      vertex 1.2560813995549314 -1.879858660950843 -10
    endloop
  endfacet
  facet normal -0.7730104533627371 0.6343932841636454 0
    outer loop
      vertex 1.5986883791814732 -1.5986883791814732 4
      vertex 1.879858660950843 -1.2560813995549314 -10
      vertex 1.5986883791814732 -1.5986883791814732 -10
    endloop
  endfacet
  facet normal -0.8819212643483552 0.47139673682599725 0
    outer loop
      vertex 1.879858660950843 -1.2560813995549314 4
      vertex 2.0887870286167542 -0.8652039161620579 -10
      vertex 1.879858660950843 -1.2560813995549314 -10
    endloop
  endfacet
  facet normal -0.956940335732209 0.29028467725446216 0
    outer loop
      vertex 2.0887870286167542 -0.8652039161620579 4
      vertex 2.217444482178185 -0.44107713148302263 -10
      vertex 2.0887870286167542 -0.8652039161620579 -10
    endloop
  endfacet
  facet normal -0.9951847266721968 0.09801714032956113 0
    outer loop
      vertex 2.217444482178185 -0.44107713148302263 4
      vertex 2.2608867878467005 0 -10
      vertex 2.217444482178185 -0.44107713148302263 -10
    endloop
  endfacet
  facet normal -0.09801714032956113 0.9951847266721968 0
    outer loop
      vertex 0 -2.2608867878467005 4
      vertex 0.44107713148302263 -2.217444482178185 4
      vertex 0.44107713148302263 -2.217444482178185 -10
    endloop
  endfacet
  facet normal -0.29028467725446216 0.956940335732209 0
    outer loop
      vertex 0.44107713148302263 -2.217444482178185 4
      vertex 0.8652039161620579 -2.0887870286167542 4
      vertex 0.8652039161620579 -2.0887870286167542 -10
    endloop
  endfacet
  facet normal -0.47139673682599725 0.8819212643483552 0
    outer loop
      vertex 0.8652039161620579 -2.0887870286167542 4
      vertex 1.2560813995549314 -1.879858660950843 4
      vertex 1.2560813995549314 -1.879858660950843 -10
    endloop
  endfacet
  facet normal -0.6343932841636454 0.7730104533627371 0
    outer loop
      vertex 1.2560813995549314 -1.879858660950843 4
      vertex 1.5986883791814732 -1.5986883791814732 4
      vertex 1.5986883791814732 -1.5986883791814732 -10
    endloop
  endfacet
  facet normal -0.7730104533627371 0.6343932841636454 0
    outer loop
      vertex 1.5986883791814732 -1.5986883791814732 4
      vertex 1.879858660950843 -1.2560813995549314 4
      vertex 1.879858660950843 -1.2560813995549314 -10
    endloop
  endfacet
  facet normal -0.8819212643483552 0.47139673682599725 0
    outer loop
      vertex 1.879858660950843 -1.2560813995549314 4
      vertex 2.0887870286167542 -0.8652039161620579 4
      vertex 2.0887870286167542 -0.8652039161620579 -10
    endloop
  endfacet
  facet normal -0.956940335732209 0.29028467725446216 0
    outer loop
      vertex 2.0887870286167542 -0.8652039161620579 4
      vertex 2.217444482178185 -0.44107713148302263 4
      vertex 2.217444482178185 -0.44107713148302263 -10
    endloop
  endfacet
  facet normal -0.9951847266721968 0.09801714032956113 0
    outer loop
      vertex 2.217444482178185 -0.44107713148302263 4
      vertex 2.2608867878467005 0 4
      vertex 2.2608867878467005 0 -10
    endloop
  endfacet
  facet normal -0.09801714032956113 -0.9951847266721968 0
    outer loop
      vertex 0.44107713148302263 2.217444482178185 4
      vertex 0 2.2608867878467005 -10
      vertex 0.44107713148302263 2.217444482178185 -10
    endloop
  endfacet
  facet normal -0.29028467725446216 -0.956940335732209 0
    outer loop
      vertex 0.8652039161620579 2.0887870286167542 4
      vertex 0.44107713148302263 2.217444482178185 -10
      vertex 0.8652039161620579 2.0887870286167542 -10
    endloop
  endfacet
  facet normal -0.47139673682599725 -0.8819212643483552 0
    outer loop
      vertex 1.2560813995549314 1.879858660950843 4
      vertex 0.8652039161620579 2.0887870286167542 -10
      vertex 1.2560813995549314 1.879858660950843 -10
    endloop
  endfacet
  facet normal -0.956940335732209 -0.29028467725446216 0
    outer loop
      vertex 2.217444482178185 0.44107713148302263 4
      vertex 2.0887870286167542 0.8652039161620579 -10
      vertex 2.217444482178185 0.44107713148302263 -10
    endloop
  endfacet
  facet normal -0.9951847266721968 -0.09801714032956113 0
    outer loop
      vertex 2.2608867878467005 0 4
      vertex 2.217444482178185 0.44107713148302263 -10
      vertex 2.2608867878467005 0 -10
    endloop
  endfacet
  facet normal -0.8819212643483552 -0.47139673682599725 0
    outer loop
      vertex 2.0887870286167542 0.8652039161620579 4
      vertex 1.879858660950843 1.2560813995549314 -10
      vertex 2.0887870286167542 0.8652039161620579 -10
    endloop
  endfacet
  facet normal -0.6343932841636454 -0.7730104533627371 0
    outer loop
      vertex 1.5986883791814732 1.5986883791814732 4
      vertex 1.2560813995549314 1.879858660950843 -10
      vertex 1.5986883791814732 1.5986883791814732 -10
    endloop
  endfacet
  facet normal -0.7730104533627371 -0.6343932841636454 0
    outer loop
      vertex 1.879858660950843 1.2560813995549314 4
      vertex 1.5986883791814732 1.5986883791814732 -10
      vertex 1.879858660950843 1.2560813995549314 -10
    endloop
  endfacet
  facet normal -0.09801714032956113 -0.9951847266721968 0
    outer loop
      vertex 0 2.2608867878467005 4
      vertex 0 2.2608867878467005 -10
      vertex 0.44107713148302263 2.217444482178185 4
    endloop
  endfacet
  facet normal -0.29028467725446216 -0.956940335732209 0
    outer loop
      vertex 0.44107713148302263 2.217444482178185 4
      vertex 0.44107713148302263 2.217444482178185 -10
      vertex 0.8652039161620579 2.0887870286167542 4
    endloop
  endfacet
  facet normal -0.47139673682599725 -0.8819212643483552 0
    outer loop
      vertex 0.8652039161620579 2.0887870286167542 4
      vertex 0.8652039161620579 2.0887870286167542 -10
      vertex 1.2560813995549314 1.879858660950843 4
    endloop
  endfacet
  facet normal -0.9951847266721968 -0.09801714032956113 0
    outer loop
      vertex 2.2608867878467005 0 4
      vertex 2.217444482178185 0.44107713148302263 4
      vertex 2.217444482178185 0.44107713148302263 -10
    endloop
  endfacet
  facet normal -0.956940335732209 -0.29028467725446216 0
    outer loop
      vertex 2.217444482178185 0.44107713148302263 4
      vertex 2.0887870286167542 0.8652039161620579 4
      vertex 2.0887870286167542 0.8652039161620579 -10
    endloop
  endfacet
  facet normal -0.8819212643483552 -0.47139673682599725 0
    outer loop
      vertex 1.879858660950843 1.2560813995549314 4
      vertex 1.879858660950843 1.2560813995549314 -10
      vertex 2.0887870286167542 0.8652039161620579 4
    endloop
  endfacet
  facet normal -0.6343932841636454 -0.7730104533627371 0
    outer loop
      vertex 1.2560813995549314 1.879858660950843 4
      vertex 1.2560813995549314 1.879858660950843 -10
      vertex 1.5986883791814732 1.5986883791814732 4
    endloop
  endfacet
  facet normal -0.7730104533627371 -0.6343932841636454 0
    outer loop
      vertex 1.879858660950843 1.2560813995549314 4
      vertex 1.5986883791814732 1.5986883791814732 4
      vertex 1.5986883791814732 1.5986883791814732 -10
    endloop
  endfacet
  facet normal 0 0 1
    outer loop
      vertex -5.774247078195542 -2.391771452281811 4
      vertex -5.774247078195542 2.391771452281811 4
      vertex -6.129908002520191 -1.2193145126008016 4
    endloop
  endfacet
  facet normal 0 0 1
    outer loop
      vertex -5.196685076890907 -3.4723139563725134 4
      vertex -5.196685076890907 3.4723139563725134 4
      vertex -5.774247078195542 -2.391771452281811 4
    endloop
  endfacet
  facet normal 0.8819212643483548 0.47139673682599814 0
    outer loop
      vertex -5.196685076890907 -3.4723139563725134 4
      vertex -5.774247078195542 -2.391771452281811 4
      vertex -5.774247078195542 -2.391771452281811 10
    endloop
  endfacet
  facet normal 0.8819212643483548 0.47139673682599814 0
    outer loop
      vertex -5.196685076890907 -3.4723139563725134 4
      vertex -5.774247078195542 -2.391771452281811 10
      vertex -5.196685076890907 -3.4723139563725134 10
    endloop
  endfacet
  facet normal 0.9569403357322088 0.2902846772544625 0
    outer loop
      vertex -5.774247078195542 -2.391771452281811 4
      vertex -6.129908002520191 -1.2193145126008016 4
      vertex -6.129908002520191 -1.2193145126008016 10
    endloop
  endfacet
  facet normal 0.9951847266721968 0.09801714032956034 0
    outer loop
      vertex -6.129908002520191 -1.2193145126008016 4
      vertex -6.25 0 4
      vertex -6.25 0 10
    endloop
  endfacet
  facet normal 0.9569403357322088 0.2902846772544625 0
    outer loop
      vertex -5.774247078195542 -2.391771452281811 4
      vertex -6.129908002520191 -1.2193145126008016 10
      vertex -5.774247078195542 -2.391771452281811 10
    endloop
  endfacet
  facet normal 0.9951847266721968 0.09801714032956034 0
    outer loop
      vertex -6.129908002520191 -1.2193145126008016 4
      vertex -6.25 0 10
      vertex -6.129908002520191 -1.2193145126008016 10
    endloop
  endfacet
  facet normal 0.47139673682599814 0.8819212643483548 0
    outer loop
      vertex -3.4723139563725134 -5.196685076890907 4
      vertex -3.4723139563725134 -5.196685076890907 10
      vertex -2.391771452281811 -5.774247078195542 4
    endloop
  endfacet
  facet normal 0.47139673682599814 0.8819212643483548 0
    outer loop
      vertex -2.391771452281811 -5.774247078195542 4
      vertex -3.4723139563725134 -5.196685076890907 10
      vertex -2.391771452281811 -5.774247078195542 10
    endloop
  endfacet
  facet normal 0.2902846772544625 0.9569403357322088 0
    outer loop
      vertex -2.391771452281811 -5.774247078195542 4
      vertex -2.391771452281811 -5.774247078195542 10
      vertex -1.2193145126008016 -6.129908002520191 4
    endloop
  endfacet
  facet normal 0.09801714032956034 0.9951847266721968 0
    outer loop
      vertex -1.2193145126008016 -6.129908002520191 4
      vertex -1.2193145126008016 -6.129908002520191 10
      vertex 0 -6.25 4
    endloop
  endfacet
  facet normal 0.2902846772544625 0.9569403357322088 0
    outer loop
      vertex -1.2193145126008016 -6.129908002520191 4
      vertex -2.391771452281811 -5.774247078195542 10
      vertex -1.2193145126008016 -6.129908002520191 10
    endloop
  endfacet
  facet normal 0.09801714032956034 0.9951847266721968 0
    outer loop
      vertex 0 -6.25 4
      vertex -1.2193145126008016 -6.129908002520191 10
      vertex 0 -6.25 10
    endloop
  endfacet
  facet normal 0 0 1
    outer loop
      vertex -3.4723139563725134 -5.196685076890907 4
      vertex -3.4723139563725134 5.196685076890907 4
      vertex -4.419417382415922 -4.419417382415922 4
    endloop
  endfacet
  facet normal 0 0 1
    outer loop
      vertex -5.196685076890907 -3.4723139563725134 4
      vertex -4.419417382415922 -4.419417382415922 4
      vertex -4.419417382415922 4.419417382415922 4
    endloop
  endfacet
  facet normal 0 0 1
    outer loop
      vertex -3.4723139563725134 -5.196685076890907 4
      vertex -2.391771452281811 -5.774247078195542 4
      vertex -2.391771452281811 5.774247078195542 4
    endloop
  endfacet
  facet normal 0 0 1
    outer loop
      vertex -2.391771452281811 -5.774247078195542 4
      vertex -1.2193145126008016 -6.129908002520191 4
      vertex -1.2560813995549314 -1.879858660950843 4
    endloop
  endfacet
  facet normal 0 0 1
    outer loop
      vertex -2.391771452281811 -5.774247078195542 4
      vertex -1.5986883791814732 -1.5986883791814732 4
      vertex -1.879858660950843 -1.2560813995549314 4
    endloop
  endfacet
  facet normal 0 0 1
    outer loop
      vertex -2.391771452281811 -5.774247078195542 4
      vertex -1.879858660950843 -1.2560813995549314 4
      vertex -2.0887870286167542 -0.8652039161620579 4
    endloop
  endfacet
  facet normal 0 0 1
    outer loop
      vertex -2.391771452281811 -5.774247078195542 4
      vertex -1.2560813995549314 -1.879858660950843 4
      vertex -1.5986883791814732 -1.5986883791814732 4
    endloop
  endfacet
  facet normal 0 0 1
    outer loop
      vertex -1.2193145126008016 -6.129908002520191 4
      vertex 0 -6.25 4
      vertex 0 -2.2608867878467005 4
    endloop
  endfacet
  facet normal 0 0 1
    outer loop
      vertex -1.2193145126008016 -6.129908002520191 4
      vertex -0.8652039161620579 -2.0887870286167542 4
      vertex -1.2560813995549314 -1.879858660950843 4
    endloop
  endfacet
  facet normal 0 0 1
    outer loop
      vertex -1.2193145126008016 -6.129908002520191 4
      vertex -0.44107713148302263 -2.217444482178185 4
      vertex -0.8652039161620579 -2.0887870286167542 4
    endloop
  endfacet
  facet normal 0 0 1
    outer loop
      vertex -1.2193145126008016 -6.129908002520191 4
      vertex 0 -2.2608867878467005 4
      vertex -0.44107713148302263 -2.217444482178185 4
    endloop
  endfacet
  facet normal 0 0 1
    outer loop
      vertex -2.391771452281811 -5.774247078195542 4
      vertex -2.0887870286167542 -0.8652039161620579 4
      vertex -2.217444482178185 -0.44107713148302263 4
    endloop
  endfacet
  facet normal 0 0 1
    outer loop
      vertex -2.391771452281811 -5.774247078195542 4
      vertex -2.217444482178185 -0.44107713148302263 4
      vertex -2.2608867878467005 0 4
    endloop
  endfacet
  facet normal 0.7730104533627373 0.6343932841636449 0
    outer loop
      vertex -5.196685076890907 -3.4723139563725134 4
      vertex -5.196685076890907 -3.4723139563725134 10
      vertex -4.419417382415922 -4.419417382415922 4
    endloop
  endfacet
  facet normal 0.6343932841636449 0.7730104533627373 0
    outer loop
      vertex -3.4723139563725134 -5.196685076890907 4
      vertex -4.419417382415922 -4.419417382415922 4
      vertex -4.419417382415922 -4.419417382415922 10
    endloop
  endfacet
  facet normal 0.7730104533627373 0.6343932841636449 0
    outer loop
      vertex -4.419417382415922 -4.419417382415922 4
      vertex -5.196685076890907 -3.4723139563725134 10
      vertex -4.419417382415922 -4.419417382415922 10
    endloop
  endfacet
  facet normal 0.6343932841636449 0.7730104533627373 0
    outer loop
      vertex -3.4723139563725134 -5.196685076890907 4
      vertex -4.419417382415922 -4.419417382415922 10
      vertex -3.4723139563725134 -5.196685076890907 10
    endloop
  endfacet
  facet normal 0 0 1
    outer loop
      vertex -6.129908002520191 -1.2193145126008016 4
      vertex -6.129908002520191 1.2193145126008016 4
      vertex -6.25 0 4
    endloop
  endfacet
  facet normal 0 0 1
    outer loop
      vertex -6.129908002520191 -1.2193145126008016 4
      vertex -5.774247078195542 2.391771452281811 4
      vertex -6.129908002520191 1.2193145126008016 4
    endloop
  endfacet
  facet normal 0 0 1
    outer loop
      vertex -5.774247078195542 -2.391771452281811 4
      vertex -5.196685076890907 3.4723139563725134 4
      vertex -5.774247078195542 2.391771452281811 4
    endloop
  endfacet
  facet normal 0.9951847266721968 -0.09801714032956034 0
    outer loop
      vertex -6.25 0 4
      vertex -6.129908002520191 1.2193145126008016 4
      vertex -6.129908002520191 1.2193145126008016 10
    endloop
  endfacet
  facet normal 0.9569403357322088 -0.2902846772544625 0
    outer loop
      vertex -6.129908002520191 1.2193145126008016 4
      vertex -5.774247078195542 2.391771452281811 4
      vertex -5.774247078195542 2.391771452281811 10
    endloop
  endfacet
  facet normal 0.9951847266721968 -0.09801714032956034 0
    outer loop
      vertex -6.25 0 4
      vertex -6.129908002520191 1.2193145126008016 10
      vertex -6.25 0 10
    endloop
  endfacet
  facet normal 0.9569403357322088 -0.2902846772544625 0
    outer loop
      vertex -6.129908002520191 1.2193145126008016 4
      vertex -5.774247078195542 2.391771452281811 10
      vertex -6.129908002520191 1.2193145126008016 10
    endloop
  endfacet
  facet normal 0.8819212643483548 -0.47139673682599814 0
    outer loop
      vertex -5.774247078195542 2.391771452281811 4
      vertex -5.196685076890907 3.4723139563725134 4
      vertex -5.196685076890907 3.4723139563725134 10
    endloop
  endfacet
  facet normal 0.8819212643483548 -0.47139673682599814 0
    outer loop
      vertex -5.774247078195542 2.391771452281811 4
      vertex -5.196685076890907 3.4723139563725134 10
      vertex -5.774247078195542 2.391771452281811 10
    endloop
  endfacet
  facet normal 0 0 1
    outer loop
      vertex -5.196685076890907 -3.4723139563725134 4
      vertex -4.419417382415922 4.419417382415922 4
      vertex -5.196685076890907 3.4723139563725134 4
    endloop
  endfacet
  facet normal 0 0 1
    outer loop
      vertex -4.419417382415922 -4.419417382415922 4
      vertex -3.4723139563725134 5.196685076890907 4
      vertex -4.419417382415922 4.419417382415922 4
    endloop
  endfacet
  facet normal 0 0 1
    outer loop
      vertex -3.4723139563725134 -5.196685076890907 4
      vertex -2.391771452281811 5.774247078195542 4
      vertex -3.4723139563725134 5.196685076890907 4
    endloop
  endfacet
  facet normal 0 0 1
    outer loop
      vertex -2.391771452281811 -5.774247078195542 4
      vertex -2.2608867878467005 0 4
      vertex -2.391771452281811 5.774247078195542 4
    endloop
  endfacet
  facet normal 0 0 1
    outer loop
      vertex -2.2608867878467005 0 4
      vertex -2.217444482178185 0.44107713148302263 4
      vertex -2.391771452281811 5.774247078195542 4
    endloop
  endfacet
  facet normal 0 0 1
    outer loop
      vertex -2.217444482178185 0.44107713148302263 4
      vertex -2.0887870286167542 0.8652039161620579 4
      vertex -2.391771452281811 5.774247078195542 4
    endloop
  endfacet
  facet normal 0 0 1
    outer loop
      vertex -2.0887870286167542 0.8652039161620579 4
      vertex -1.879858660950843 1.2560813995549314 4
      vertex -2.391771452281811 5.774247078195542 4
    endloop
  endfacet
  facet normal 0 0 1
    outer loop
      vertex -1.879858660950843 1.2560813995549314 4
      vertex -1.5986883791814732 1.5986883791814732 4
      vertex -2.391771452281811 5.774247078195542 4
    endloop
  endfacet
  facet normal 0 0 1
    outer loop
      vertex -1.5986883791814732 1.5986883791814732 4
      vertex -1.2560813995549314 1.879858660950843 4
      vertex -1.2193145126008016 6.129908002520191 4
    endloop
  endfacet
  facet normal 0 0 1
    outer loop
      vertex -1.5986883791814732 1.5986883791814732 4
      vertex -1.2193145126008016 6.129908002520191 4
      vertex -2.391771452281811 5.774247078195542 4
    endloop
  endfacet
  facet normal 0 0 1
    outer loop
      vertex -1.2560813995549314 1.879858660950843 4
      vertex -0.8652039161620579 2.0887870286167542 4
      vertex -1.2193145126008016 6.129908002520191 4
    endloop
  endfacet
  facet normal 0 0 1
    outer loop
      vertex -0.8652039161620579 2.0887870286167542 4
      vertex -0.44107713148302263 2.217444482178185 4
      vertex -1.2193145126008016 6.129908002520191 4
    endloop
  endfacet
  facet normal 0 0 1
    outer loop
      vertex -0.44107713148302263 2.217444482178185 4
      vertex 0 2.2608867878467005 4
      vertex -1.2193145126008016 6.129908002520191 4
    endloop
  endfacet
  facet normal 0 0 1
    outer loop
      vertex -1.2193145126008016 6.129908002520191 4
      vertex 0 2.2608867878467005 4
      vertex 0 6.25 4
    endloop
  endfacet
  facet normal 0.7730104533627373 -0.6343932841636449 0
    outer loop
      vertex -5.196685076890907 3.4723139563725134 4
      vertex -4.419417382415922 4.419417382415922 4
      vertex -4.419417382415922 4.419417382415922 10
    endloop
  endfacet
  facet normal 0.6343932841636449 -0.7730104533627373 0
    outer loop
      vertex -4.419417382415922 4.419417382415922 4
      vertex -3.4723139563725134 5.196685076890907 4
      vertex -3.4723139563725134 5.196685076890907 10
    endloop
  endfacet
  facet normal 0.7730104533627373 -0.6343932841636449 0
    outer loop
      vertex -5.196685076890907 3.4723139563725134 4
      vertex -4.419417382415922 4.419417382415922 10
      vertex -5.196685076890907 3.4723139563725134 10
    endloop
  endfacet
  facet normal 0.6343932841636449 -0.7730104533627373 0
    outer loop
      vertex -4.419417382415922 4.419417382415922 4
      vertex -3.4723139563725134 5.196685076890907 10
      vertex -4.419417382415922 4.419417382415922 10
    endloop
  endfacet
  facet normal 0.47139673682599814 -0.8819212643483548 0
    outer loop
      vertex -3.4723139563725134 5.196685076890907 4
      vertex -2.391771452281811 5.774247078195542 4
      vertex -2.391771452281811 5.774247078195542 10
    endloop
  endfacet
  facet normal 0.47139673682599814 -0.8819212643483548 0
    outer loop
      vertex -3.4723139563725134 5.196685076890907 4
      vertex -2.391771452281811 5.774247078195542 10
      vertex -3.4723139563725134 5.196685076890907 10
    endloop
  endfacet
  facet normal 0.2902846772544625 -0.9569403357322088 0
    outer loop
      vertex -2.391771452281811 5.774247078195542 4
      vertex -1.2193145126008016 6.129908002520191 4
      vertex -1.2193145126008016 6.129908002520191 10
    endloop
  endfacet
  facet normal 0.09801714032956034 -0.9951847266721968 0
    outer loop
      vertex -1.2193145126008016 6.129908002520191 4
      vertex 0 6.25 4
      vertex 0 6.25 10
    endloop
  endfacet
  facet normal 0.2902846772544625 -0.9569403357322088 0
    outer loop
      vertex -2.391771452281811 5.774247078195542 4
      vertex -1.2193145126008016 6.129908002520191 10
      vertex -2.391771452281811 5.774247078195542 10
    endloop
  endfacet
  facet normal 0.09801714032956034 -0.9951847266721968 0
    outer loop
      vertex -1.2193145126008016 6.129908002520191 4
      vertex 0 6.25 10
      vertex -1.2193145126008016 6.129908002520191 10
    endloop
  endfacet
  facet normal -0.09801714032956034 0.9951847266721968 0
    outer loop
      vertex 0 -6.25 4
      vertex 0 -6.25 10
      vertex 1.2193145126008016 -6.129908002520191 4
    endloop
  endfacet
  facet normal -0.2902846772544625 0.9569403357322088 0
    outer loop
      vertex 1.2193145126008016 -6.129908002520191 4
      vertex 1.2193145126008016 -6.129908002520191 10
      vertex 2.391771452281811 -5.774247078195542 4
    endloop
  endfacet
  facet normal -0.09801714032956034 0.9951847266721968 0
    outer loop
      vertex 1.2193145126008016 -6.129908002520191 4
      vertex 0 -6.25 10
      vertex 1.2193145126008016 -6.129908002520191 10
    endloop
  endfacet
  facet normal -0.2902846772544625 0.9569403357322088 0
    outer loop
      vertex 2.391771452281811 -5.774247078195542 4
      vertex 1.2193145126008016 -6.129908002520191 10
      vertex 2.391771452281811 -5.774247078195542 10
    endloop
  endfacet
  facet normal -0.47139673682599814 0.8819212643483548 0
    outer loop
      vertex 2.391771452281811 -5.774247078195542 4
      vertex 2.391771452281811 -5.774247078195542 10
      vertex 3.4723139563725134 -5.196685076890907 4
    endloop
  endfacet
  facet normal -0.47139673682599814 0.8819212643483548 0
    outer loop
      vertex 3.4723139563725134 -5.196685076890907 4
      vertex 2.391771452281811 -5.774247078195542 10
      vertex 3.4723139563725134 -5.196685076890907 10
    endloop
  endfacet
  facet normal 0 0 1
    outer loop
      vertex 0 -6.25 4
      vertex 1.2193145126008016 -6.129908002520191 4
      vertex 0 -2.2608867878467005 4
    endloop
  endfacet
  facet normal 0 0 1
    outer loop
      vertex 1.2193145126008016 -6.129908002520191 4
      vertex 0.44107713148302263 -2.217444482178185 4
      vertex 0 -2.2608867878467005 4
    endloop
  endfacet
  facet normal 0 0 1
    outer loop
      vertex 1.2193145126008016 -6.129908002520191 4
      vertex 0.8652039161620579 -2.0887870286167542 4
      vertex 0.44107713148302263 -2.217444482178185 4
    endloop
  endfacet
  facet normal 0 0 1
    outer loop
      vertex 1.2193145126008016 -6.129908002520191 4
      vertex 1.2560813995549314 -1.879858660950843 4
      vertex 0.8652039161620579 -2.0887870286167542 4
    endloop
  endfacet
  facet normal 0 0 1
    outer loop
      vertex 1.2193145126008016 -6.129908002520191 4
      vertex 2.391771452281811 -5.774247078195542 4
      vertex 1.5986883791814732 -1.5986883791814732 4
    endloop
  endfacet
  facet normal 0 0 1
    outer loop
      vertex 1.2193145126008016 -6.129908002520191 4
      vertex 1.5986883791814732 -1.5986883791814732 4
      vertex 1.2560813995549314 -1.879858660950843 4
    endloop
  endfacet
  facet normal 0 0 1
    outer loop
      vertex 2.391771452281811 -5.774247078195542 4
      vertex 1.879858660950843 -1.2560813995549314 4
      vertex 1.5986883791814732 -1.5986883791814732 4
    endloop
  endfacet
  facet normal 0 0 1
    outer loop
      vertex 2.391771452281811 -5.774247078195542 4
      vertex 2.0887870286167542 -0.8652039161620579 4
      vertex 1.879858660950843 -1.2560813995549314 4
    endloop
  endfacet
  facet normal 0 0 1
    outer loop
      vertex 2.391771452281811 -5.774247078195542 4
      vertex 2.217444482178185 -0.44107713148302263 4
      vertex 2.0887870286167542 -0.8652039161620579 4
    endloop
  endfacet
  facet normal 0 0 1
    outer loop
      vertex 2.391771452281811 -5.774247078195542 4
      vertex 2.2608867878467005 0 4
      vertex 2.217444482178185 -0.44107713148302263 4
    endloop
  endfacet
  facet normal 0 0 1
    outer loop
      vertex 2.391771452281811 -5.774247078195542 4
      vertex 3.4723139563725134 -5.196685076890907 4
      vertex 3.4723139563725134 5.196685076890907 4
    endloop
  endfacet
  facet normal 0 0 1
    outer loop
      vertex 3.4723139563725134 -5.196685076890907 4
      vertex 4.419417382415922 -4.419417382415922 4
      vertex 4.419417382415922 4.419417382415922 4
    endloop
  endfacet
  facet normal 0 0 1
    outer loop
      vertex 4.419417382415922 -4.419417382415922 4
      vertex 5.196685076890907 -3.4723139563725134 4
      vertex 5.196685076890907 3.4723139563725134 4
    endloop
  endfacet
  facet normal -0.6343932841636449 0.7730104533627373 0
    outer loop
      vertex 3.4723139563725134 -5.196685076890907 4
      vertex 3.4723139563725134 -5.196685076890907 10
      vertex 4.419417382415922 -4.419417382415922 4
    endloop
  endfacet
  facet normal -0.7730104533627373 0.6343932841636449 0
    outer loop
      vertex 4.419417382415922 -4.419417382415922 4
      vertex 4.419417382415922 -4.419417382415922 10
      vertex 5.196685076890907 -3.4723139563725134 4
    endloop
  endfacet
  facet normal -0.6343932841636449 0.7730104533627373 0
    outer loop
      vertex 4.419417382415922 -4.419417382415922 4
      vertex 3.4723139563725134 -5.196685076890907 10
      vertex 4.419417382415922 -4.419417382415922 10
    endloop
  endfacet
  facet normal -0.7730104533627373 0.6343932841636449 0
    outer loop
      vertex 5.196685076890907 -3.4723139563725134 4
      vertex 4.419417382415922 -4.419417382415922 10
      vertex 5.196685076890907 -3.4723139563725134 10
    endloop
  endfacet
  facet normal 0 0 1
    outer loop
      vertex 5.196685076890907 -3.4723139563725134 4
      vertex 5.774247078195542 -2.391771452281811 4
      vertex 5.774247078195542 2.391771452281811 4
    endloop
  endfacet
  facet normal 0 0 1
    outer loop
      vertex 5.774247078195542 -2.391771452281811 4
      vertex 6.129908002520191 -1.2193145126008016 4
      vertex 6.129908002520191 1.2193145126008016 4
    endloop
  endfacet
  facet normal -0.8819212643483548 0.47139673682599814 0
    outer loop
      vertex 5.196685076890907 -3.4723139563725134 4
      vertex 5.196685076890907 -3.4723139563725134 10
      vertex 5.774247078195542 -2.391771452281811 4
    endloop
  endfacet
  facet normal -0.8819212643483548 0.47139673682599814 0
    outer loop
      vertex 5.774247078195542 -2.391771452281811 4
      vertex 5.196685076890907 -3.4723139563725134 10
      vertex 5.774247078195542 -2.391771452281811 10
    endloop
  endfacet
  facet normal -0.9569403357322088 0.2902846772544625 0
    outer loop
      vertex 5.774247078195542 -2.391771452281811 4
      vertex 5.774247078195542 -2.391771452281811 10
      vertex 6.129908002520191 -1.2193145126008016 4
    endloop
  endfacet
  facet normal -0.9951847266721968 0.09801714032956034 0
    outer loop
      vertex 6.129908002520191 -1.2193145126008016 4
      vertex 6.129908002520191 -1.2193145126008016 10
      vertex 6.25 0 4
    endloop
  endfacet
  facet normal -0.9569403357322088 0.2902846772544625 0
    outer loop
      vertex 6.129908002520191 -1.2193145126008016 4
      vertex 5.774247078195542 -2.391771452281811 10
      vertex 6.129908002520191 -1.2193145126008016 10
    endloop
  endfacet
  facet normal -0.9951847266721968 0.09801714032956034 0
    outer loop
      vertex 6.25 0 4
      vertex 6.129908002520191 -1.2193145126008016 10
      vertex 6.25 0 10
    endloop
  endfacet
  facet normal 0 0 1
    outer loop
      vertex 2.391771452281811 -5.774247078195542 4
      vertex 2.391771452281811 5.774247078195542 4
      vertex 2.2608867878467005 0 4
    endloop
  endfacet
  facet normal 0 0 1
    outer loop
      vertex 2.2608867878467005 0 4
      vertex 2.391771452281811 5.774247078195542 4
      vertex 2.217444482178185 0.44107713148302263 4
    endloop
  endfacet
  facet normal 0 0 1
    outer loop
      vertex 2.217444482178185 0.44107713148302263 4
      vertex 2.391771452281811 5.774247078195542 4
      vertex 2.0887870286167542 0.8652039161620579 4
    endloop
  endfacet
  facet normal 0 0 1
    outer loop
      vertex 0 2.2608867878467005 4
      vertex 0.44107713148302263 2.217444482178185 4
      vertex 1.2193145126008016 6.129908002520191 4
    endloop
  endfacet
  facet normal 0 0 1
    outer loop
      vertex 0.44107713148302263 2.217444482178185 4
      vertex 0.8652039161620579 2.0887870286167542 4
      vertex 1.2193145126008016 6.129908002520191 4
    endloop
  endfacet
  facet normal 0 0 1
    outer loop
      vertex 0.8652039161620579 2.0887870286167542 4
      vertex 1.2560813995549314 1.879858660950843 4
      vertex 1.2193145126008016 6.129908002520191 4
    endloop
  endfacet
  facet normal 0 0 1
    outer loop
      vertex 0 2.2608867878467005 4
      vertex 1.2193145126008016 6.129908002520191 4
      vertex 0 6.25 4
    endloop
  endfacet
  facet normal 0 0 1
    outer loop
      vertex 1.2560813995549314 1.879858660950843 4
      vertex 1.5986883791814732 1.5986883791814732 4
      vertex 2.391771452281811 5.774247078195542 4
    endloop
  endfacet
  facet normal 0 0 1
    outer loop
      vertex 1.879858660950843 1.2560813995549314 4
      vertex 2.0887870286167542 0.8652039161620579 4
      vertex 2.391771452281811 5.774247078195542 4
    endloop
  endfacet
  facet normal 0 0 1
    outer loop
      vertex 1.879858660950843 1.2560813995549314 4
      vertex 2.391771452281811 5.774247078195542 4
      vertex 1.5986883791814732 1.5986883791814732 4
    endloop
  endfacet
  facet normal 0 0 1
    outer loop
      vertex 1.2560813995549314 1.879858660950843 4
      vertex 2.391771452281811 5.774247078195542 4
      vertex 1.2193145126008016 6.129908002520191 4
    endloop
  endfacet
  facet normal 0 0 1
    outer loop
      vertex 2.391771452281811 -5.774247078195542 4
      vertex 3.4723139563725134 5.196685076890907 4
      vertex 2.391771452281811 5.774247078195542 4
    endloop
  endfacet
  facet normal 0 0 1
    outer loop
      vertex 4.419417382415922 -4.419417382415922 4
      vertex 5.196685076890907 3.4723139563725134 4
      vertex 4.419417382415922 4.419417382415922 4
    endloop
  endfacet
  facet normal 0 0 1
    outer loop
      vertex 3.4723139563725134 -5.196685076890907 4
      vertex 4.419417382415922 4.419417382415922 4
      vertex 3.4723139563725134 5.196685076890907 4
    endloop
  endfacet
  facet normal -0.6343932841636449 -0.7730104533627373 0
    outer loop
      vertex 4.419417382415922 4.419417382415922 4
      vertex 4.419417382415922 4.419417382415922 10
      vertex 3.4723139563725134 5.196685076890907 4
    endloop
  endfacet
  facet normal -0.7730104533627373 -0.6343932841636449 0
    outer loop
      vertex 4.419417382415922 4.419417382415922 4
      vertex 5.196685076890907 3.4723139563725134 4
      vertex 5.196685076890907 3.4723139563725134 10
    endloop
  endfacet
  facet normal -0.6343932841636449 -0.7730104533627373 0
    outer loop
      vertex 3.4723139563725134 5.196685076890907 4
      vertex 4.419417382415922 4.419417382415922 10
      vertex 3.4723139563725134 5.196685076890907 10
    endloop
  endfacet
  facet normal -0.7730104533627373 -0.6343932841636449 0
    outer loop
      vertex 4.419417382415922 4.419417382415922 4
      vertex 5.196685076890907 3.4723139563725134 10
      vertex 4.419417382415922 4.419417382415922 10
    endloop
  endfacet
  facet normal -0.09801714032956034 -0.9951847266721968 0
    outer loop
      vertex 0 6.25 4
      vertex 1.2193145126008016 6.129908002520191 4
      vertex 1.2193145126008016 6.129908002520191 10
    endloop
  endfacet
  facet normal -0.2902846772544625 -0.9569403357322088 0
    outer loop
      vertex 1.2193145126008016 6.129908002520191 4
      vertex 2.391771452281811 5.774247078195542 4
      vertex 2.391771452281811 5.774247078195542 10
    endloop
  endfacet
  facet normal -0.09801714032956034 -0.9951847266721968 0
    outer loop
      vertex 0 6.25 4
      vertex 1.2193145126008016 6.129908002520191 10
      vertex 0 6.25 10
    endloop
  endfacet
  facet normal -0.2902846772544625 -0.9569403357322088 0
    outer loop
      vertex 1.2193145126008016 6.129908002520191 4
      vertex 2.391771452281811 5.774247078195542 10
      vertex 1.2193145126008016 6.129908002520191 10
    endloop
  endfacet
  facet normal -0.47139673682599814 -0.8819212643483548 0
    outer loop
      vertex 2.391771452281811 5.774247078195542 4
      vertex 3.4723139563725134 5.196685076890907 4
      vertex 3.4723139563725134 5.196685076890907 10
    endloop
  endfacet
  facet normal -0.47139673682599814 -0.8819212643483548 0
    outer loop
      vertex 2.391771452281811 5.774247078195542 4
      vertex 3.4723139563725134 5.196685076890907 10
      vertex 2.391771452281811 5.774247078195542 10
    endloop
  endfacet
  facet normal 0 0 1
    outer loop
      vertex 5.196685076890907 -3.4723139563725134 4
      vertex 5.774247078195542 2.391771452281811 4
      vertex 5.196685076890907 3.4723139563725134 4
    endloop
  endfacet
  facet normal 0 0 1
    outer loop
      vertex 5.774247078195542 -2.391771452281811 4
      vertex 6.129908002520191 1.2193145126008016 4
      vertex 5.774247078195542 2.391771452281811 4
    endloop
  endfacet
  facet normal 0 0 1
    outer loop
      vertex 6.129908002520191 -1.2193145126008016 4
      vertex 6.25 0 4
      vertex 6.129908002520191 1.2193145126008016 4
    endloop
  endfacet
  facet normal -0.9951847266721968 -0.09801714032956034 0
    outer loop
      vertex 6.25 0 4
      vertex 6.25 0 10
      vertex 6.129908002520191 1.2193145126008016 4
    endloop
  endfacet
  facet normal -0.9569403357322088 -0.2902846772544625 0
    outer loop
      vertex 6.129908002520191 1.2193145126008016 4
      vertex 6.129908002520191 1.2193145126008016 10
      vertex 5.774247078195542 2.391771452281811 4
    endloop
  endfacet
  facet normal -0.9951847266721968 -0.09801714032956034 0
    outer loop
      vertex 6.129908002520191 1.2193145126008016 4
      vertex 6.25 0 10
      vertex 6.129908002520191 1.2193145126008016 10
    endloop
  endfacet
  facet normal -0.9569403357322088 -0.2902846772544625 0
    outer loop
      vertex 5.774247078195542 2.391771452281811 4
      vertex 6.129908002520191 1.2193145126008016 10
      vertex 5.774247078195542 2.391771452281811 10
    endloop
  endfacet
  facet normal -0.8819212643483548 -0.47139673682599814 0
    outer loop
      vertex 5.774247078195542 2.391771452281811 4
      vertex 5.774247078195542 2.391771452281811 10
      vertex 5.196685076890907 3.4723139563725134 4
    endloop
  endfacet
  facet normal -0.8819212643483548 -0.47139673682599814 0
    outer loop
      vertex 5.196685076890907 3.4723139563725134 4
      vertex 5.774247078195542 2.391771452281811 10
      vertex 5.196685076890907 3.4723139563725134 10
    endloop
  endfacet
  facet normal -0.5773502691896258 -0.5773502691896258 -0.5773502691896258
    outer loop
      vertex -10 -9 -9
      vertex -9 -9 -10
      vertex -9 -10 -9
    endloop
  endfacet
  facet normal -0.7071067811865476 -0.7071067811865476 0
    outer loop
      vertex -10 -9 -9
      vertex -9 -10 -9
      vertex -10 -9 9
    endloop
  endfacet
  facet normal -0.7071067811865476 0 -0.7071067811865476
    outer loop
      vertex -10 -9 -9
      vertex -10 9 -9
      vertex -9 -9 -10
    endloop
  endfacet
  facet normal 0 0 -1
    outer loop
      vertex -9 -9 -10
      vertex -9 9 -10
      vertex -2.0887870286167542 -0.8652039161620579 -10
    endloop
  endfacet
  facet normal 0 -0.7071067811865476 -0.7071067811865476
    outer loop
      vertex -9 -10 -9
      vertex -9 -9 -10
      vertex 9 -9 -10
    endloop
  endfacet
  facet normal 0 0 -1
    outer loop
      vertex -9 -9 -10
      vertex -1.879858660950843 -1.2560813995549314 -10
      vertex -1.5986883791814732 -1.5986883791814732 -10
    endloop
  endfacet
  facet normal 0 0 -1
    outer loop
      vertex -9 -9 -10
      vertex -1.5986883791814732 -1.5986883791814732 -10
      vertex -1.2560813995549314 -1.879858660950843 -10
    endloop
  endfacet
  facet normal 0 0 -1
    outer loop
      vertex -9 -9 -10
      vertex -2.0887870286167542 -0.8652039161620579 -10
      vertex -1.879858660950843 -1.2560813995549314 -10
    endloop
  endfacet
  facet normal 0 0 -1
    outer loop
      vertex -9 -9 -10
      vertex -0.8652039161620579 -2.0887870286167542 -10
      vertex -0.44107713148302263 -2.217444482178185 -10
    endloop
  endfacet
  facet normal 0 0 -1
    outer loop
      vertex -9 -9 -10
      vertex -0.44107713148302263 -2.217444482178185 -10
      vertex 0 -2.2608867878467005 -10
    endloop
  endfacet
  facet normal 0 0 -1
    outer loop
      vertex -9 -9 -10
      vertex -1.2560813995549314 -1.879858660950843 -10
      vertex -0.8652039161620579 -2.0887870286167542 -10
    endloop
  endfacet
  facet normal 0 0 -1
    outer loop
      vertex -9 -9 -10
      vertex 0 -2.2608867878467005 -10
      vertex 0.44107713148302263 -2.217444482178185 -10
    endloop
  endfacet
  facet normal 0 0 -1
    outer loop
      vertex -9 -9 -10
      vertex 0.44107713148302263 -2.217444482178185 -10
      vertex 0.8652039161620579 -2.0887870286167542 -10
    endloop
  endfacet
  facet normal -0.7071067811865476 -0.7071067811865476 0
    outer loop
      vertex -9 -10 -9
      vertex -9 -10 9
      vertex -10 -9 9
    endloop
  endfacet
  facet normal -0.5773502691896258 -0.5773502691896258 0.5773502691896258
    outer loop
      vertex -10 -9 9
      vertex -9 -10 9
      vertex -9 -9 10
    endloop
  endfacet
  facet normal 0 0 1
    outer loop
      vertex -9 -9 10
      vertex -4.419417382415922 -4.419417382415922 10
      vertex -5.196685076890907 -3.4723139563725134 10
    endloop
  endfacet
  facet normal 0 0 1
    outer loop
      vertex -9 -9 10
      vertex -3.4723139563725134 -5.196685076890907 10
      vertex -4.419417382415922 -4.419417382415922 10
    endloop
  endfacet
  facet normal -1 0 0
    outer loop
      vertex -10 -9 -9
      vertex -10 -9 9
      vertex -10 9 9
    endloop
  endfacet
  facet normal -0.7071067811865476 0 0.7071067811865476
    outer loop
      vertex -10 -9 9
      vertex -9 -9 10
      vertex -10 9 9
    endloop
  endfacet
  facet normal 0 0 1
    outer loop
      vertex -9 -9 10
      vertex -6.129908002520191 -1.2193145126008016 10
      vertex -9 9 10
    endloop
  endfacet
  facet normal 0 0 1
    outer loop
      vertex -9 -9 10
      vertex -5.774247078195542 -2.391771452281811 10
      vertex -6.129908002520191 -1.2193145126008016 10
    endloop
  endfacet
  facet normal 0 0 1
    outer loop
      vertex -9 -9 10
      vertex -5.196685076890907 -3.4723139563725134 10
      vertex -5.774247078195542 -2.391771452281811 10
    endloop
  endfacet
  facet normal 0 -1 0
    outer loop
      vertex -9 -10 -9
      vertex 9 -10 9
      vertex -9 -10 9
    endloop
  endfacet
  facet normal 0 -0.7071067811865476 0.7071067811865476
    outer loop
      vertex -9 -10 9
      vertex 9 -10 9
      vertex -9 -9 10
    endloop
  endfacet
  facet normal 0 0 1
    outer loop
      vertex -9 -9 10
      vertex -2.391771452281811 -5.774247078195542 10
      vertex -3.4723139563725134 -5.196685076890907 10
    endloop
  endfacet
  facet normal 0 0 1
    outer loop
      vertex -9 -9 10
      vertex -1.2193145126008016 -6.129908002520191 10
      vertex -2.391771452281811 -5.774247078195542 10
    endloop
  endfacet
  facet normal 0 0 1
    outer loop
      vertex -9 -9 10
      vertex 0 -6.25 10
      vertex -1.2193145126008016 -6.129908002520191 10
    endloop
  endfacet
  facet normal 0 0 1
    outer loop
      vertex -9 -9 10
      vertex 1.2193145126008016 -6.129908002520191 10
      vertex 0 -6.25 10
    endloop
  endfacet
  facet normal -0.7071067811865476 0 -0.7071067811865476
    outer loop
      vertex -9 -9 -10
      vertex -10 9 -9
      vertex -9 9 -10
    endloop
  endfacet
  facet normal -1 0 0
    outer loop
      vertex -10 -9 -9
      vertex -10 9 9
      vertex -10 9 -9
    endloop
  endfacet
  facet normal -0.5773502691896258 0.5773502691896258 -0.5773502691896258
    outer loop
      vertex -10 9 -9
      vertex -9 10 -9
      vertex -9 9 -10
    endloop
  endfacet
  facet normal -0.7071067811865476 0.7071067811865476 0
    outer loop
      vertex -10 9 -9
      vertex -10 9 9
      vertex -9 10 -9
    endloop
  endfacet
  facet normal 0 0 -1
    outer loop
      vertex -9 9 -10
      vertex -2.217444482178185 -0.44107713148302263 -10
      vertex -2.0887870286167542 -0.8652039161620579 -10
    endloop
  endfacet
  facet normal 0 0 -1
    outer loop
      vertex -9 9 -10
      vertex -2.2608867878467005 0 -10
      vertex -2.217444482178185 -0.44107713148302263 -10
    endloop
  endfacet
  facet normal 0 0 -1
    outer loop
      vertex -9 9 -10
      vertex -2.217444482178185 0.44107713148302263 -10
      vertex -2.2608867878467005 0 -10
    endloop
  endfacet
  facet normal 0 0 -1
    outer loop
      vertex -9 9 -10
      vertex -2.0887870286167542 0.8652039161620579 -10
      vertex -2.217444482178185 0.44107713148302263 -10
    endloop
  endfacet
  facet normal 0 0 -1
    outer loop
      vertex -9 9 -10
      vertex -1.879858660950843 1.2560813995549314 -10
      vertex -2.0887870286167542 0.8652039161620579 -10
    endloop
  endfacet
  facet normal 0 0 -1
    outer loop
      vertex -9 9 -10
      vertex -1.5986883791814732 1.5986883791814732 -10
      vertex -1.879858660950843 1.2560813995549314 -10
    endloop
  endfacet
  facet normal 0 0 -1
    outer loop
      vertex -9 9 -10
      vertex -1.2560813995549314 1.879858660950843 -10
      vertex -1.5986883791814732 1.5986883791814732 -10
    endloop
  endfacet
  facet normal 0 0 -1
    outer loop
      vertex -9 9 -10
      vertex -0.8652039161620579 2.0887870286167542 -10
      vertex -1.2560813995549314 1.879858660950843 -10
    endloop
  endfacet
  facet normal 0 0.7071067811865476 -0.7071067811865476
    outer loop
      vertex -9 9 -10
      vertex -9 10 -9
      vertex 9 9 -10
    endloop
  endfacet
  facet normal 0 0 -1
    outer loop
      vertex -9 9 -10
      vertex 9 9 -10
      vertex -0.8652039161620579 2.0887870286167542 -10
    endloop
  endfacet
  facet normal -0.7071067811865476 0 0.7071067811865476
    outer loop
      vertex -9 -9 10
      vertex -9 9 10
      vertex -10 9 9
    endloop
  endfacet
  facet normal 0 0 1
    outer loop
      vertex -9 9 10
      vertex -6.129908002520191 -1.2193145126008016 10
      vertex -6.25 0 10
    endloop
  endfacet
  facet normal 0 0 1
    outer loop
      vertex -9 9 10
      vertex -6.25 0 10
      vertex -6.129908002520191 1.2193145126008016 10
    endloop
  endfacet
  facet normal 0 0 1
    outer loop
      vertex -9 9 10
      vertex -6.129908002520191 1.2193145126008016 10
      vertex -5.774247078195542 2.391771452281811 10
    endloop
  endfacet
  facet normal 0 0 1
    outer loop
      vertex -9 9 10
      vertex -5.774247078195542 2.391771452281811 10
      vertex -5.196685076890907 3.4723139563725134 10
    endloop
  endfacet
  facet normal -0.7071067811865476 0.7071067811865476 0
    outer loop
      vertex -9 10 -9
      vertex -10 9 9
      vertex -9 10 9
    endloop
  endfacet
  facet normal -0.5773502691896258 0.5773502691896258 0.5773502691896258
    outer loop
      vertex -10 9 9
      vertex -9 9 10
      vertex -9 10 9
    endloop
  endfacet
  facet normal 0 0 1
    outer loop
      vertex -9 9 10
      vertex -5.196685076890907 3.4723139563725134 10
      vertex -4.419417382415922 4.419417382415922 10
    endloop
  endfacet
  facet normal 0 0 1
    outer loop
      vertex -9 9 10
      vertex -4.419417382415922 4.419417382415922 10
      vertex -3.4723139563725134 5.196685076890907 10
    endloop
  endfacet
  facet normal 0 1 0
    outer loop
      vertex -9 10 -9
      vertex -9 10 9
      vertex 9 10 9
    endloop
  endfacet
  facet normal 0 0 1
    outer loop
      vertex -9 9 10
      vertex -3.4723139563725134 5.196685076890907 10
      vertex -2.391771452281811 5.774247078195542 10
    endloop
  endfacet
  facet normal 0 0 1
    outer loop
      vertex -9 9 10
      vertex -2.391771452281811 5.774247078195542 10
      vertex -1.2193145126008016 6.129908002520191 10
    endloop
  endfacet
  facet normal 0 0.7071067811865476 0.7071067811865476
    outer loop
      vertex -9 9 10
      vertex 9 10 9
      vertex -9 10 9
    endloop
  endfacet
  facet normal 0 0 1
    outer loop
      vertex -9 9 10
      vertex -1.2193145126008016 6.129908002520191 10
      vertex 9 9 10
    endloop
  endfacet
  facet normal 0 0 -1
    outer loop
      vertex -9 -9 -10
      vertex 0.8652039161620579 -2.0887870286167542 -10
      vertex 9 -9 -10
    endloop
  endfacet
  facet normal 0 -0.7071067811865476 -0.7071067811865476
    outer loop
      vertex -9 -10 -9
      vertex 9 -9 -10
      vertex 9 -10 -9
    endloop
  endfacet
  facet normal 0 -1 0
    outer loop
      vertex -9 -10 -9
      vertex 9 -10 -9
      vertex 9 -10 9
    endloop
  endfacet
  facet normal 0 0 -1
    outer loop
      vertex 9 -9 -10
      vertex 0.8652039161620579 -2.0887870286167542 -10
      vertex 1.2560813995549314 -1.879858660950843 -10
    endloop
  endfacet
  facet normal 0 0 -1
    outer loop
      vertex 9 -9 -10
      vertex 1.2560813995549314 -1.879858660950843 -10
      vertex 1.5986883791814732 -1.5986883791814732 -10
    endloop
  endfacet
  facet normal 0 0 -1
    outer loop
      vertex 9 -9 -10
      vertex 1.5986883791814732 -1.5986883791814732 -10
      vertex 1.879858660950843 -1.2560813995549314 -10
    endloop
  endfacet
  facet normal 0 0 -1
    outer loop
      vertex 9 -9 -10
      vertex 1.879858660950843 -1.2560813995549314 -10
      vertex 2.0887870286167542 -0.8652039161620579 -10
    endloop
  endfacet
  facet normal 0 0 -1
    outer loop
      vertex 9 -9 -10
      vertex 2.0887870286167542 -0.8652039161620579 -10
      vertex 2.217444482178185 -0.44107713148302263 -10
    endloop
  endfacet
  facet normal 0 0 -1
    outer loop
      vertex 9 -9 -10
      vertex 2.217444482178185 -0.44107713148302263 -10
      vertex 2.2608867878467005 0 -10
    endloop
  endfacet
  facet normal 0 0 -1
    outer loop
      vertex 9 -9 -10
      vertex 2.2608867878467005 0 -10
      vertex 2.217444482178185 0.44107713148302263 -10
    endloop
  endfacet
  facet normal 0 0 -1
    outer loop
      vertex 9 -9 -10
      vertex 2.217444482178185 0.44107713148302263 -10
      vertex 2.0887870286167542 0.8652039161620579 -10
    endloop
  endfacet
  facet normal 0.5773502691896258 -0.5773502691896258 -0.5773502691896258
    outer loop
      vertex 9 -10 -9
      vertex 9 -9 -10
      vertex 10 -9 -9
    endloop
  endfacet
  facet normal 0.7071067811865476 -0.7071067811865476 0
    outer loop
      vertex 9 -10 -9
      vertex 10 -9 -9
      vertex 9 -10 9
    endloop
  endfacet
  facet normal 0.7071067811865476 0 -0.7071067811865476
    outer loop
      vertex 9 -9 -10
      vertex 9 9 -10
      vertex 10 -9 -9
    endloop
  endfacet
  facet normal 0 0 1
    outer loop
      vertex -9 -9 10
      vertex 9 -9 10
      vertex 1.2193145126008016 -6.129908002520191 10
    endloop
  endfacet
  facet normal 0 -0.7071067811865476 0.7071067811865476
    outer loop
      vertex -9 -9 10
      vertex 9 -10 9
      vertex 9 -9 10
    endloop
  endfacet
  facet normal 0 0 1
    outer loop
      vertex 9 -9 10
      vertex 2.391771452281811 -5.774247078195542 10
      vertex 1.2193145126008016 -6.129908002520191 10
    endloop
  endfacet
  facet normal 0 0 1
    outer loop
      vertex 9 -9 10
      vertex 3.4723139563725134 -5.196685076890907 10
      vertex 2.391771452281811 -5.774247078195542 10
    endloop
  endfacet
  facet normal 0.7071067811865476 -0.7071067811865476 0
    outer loop
      vertex 10 -9 -9
      vertex 10 -9 9
      vertex 9 -10 9
    endloop
  endfacet
  facet normal 0 0 1
    outer loop
      vertex 9 -9 10
      vertex 4.419417382415922 -4.419417382415922 10
      vertex 3.4723139563725134 -5.196685076890907 10
    endloop
  endfacet
  facet normal 0 0 1
    outer loop
      vertex 9 -9 10
      vertex 5.196685076890907 -3.4723139563725134 10
      vertex 4.419417382415922 -4.419417382415922 10
    endloop
  endfacet
  facet normal 0.5773502691896258 -0.5773502691896258 0.5773502691896258
    outer loop
      vertex 9 -10 9
      vertex 10 -9 9
      vertex 9 -9 10
    endloop
  endfacet
  facet normal 1 0 0
    outer loop
      vertex 10 -9 -9
      vertex 10 9 9
      vertex 10 -9 9
    endloop
  endfacet
  facet normal 0 0 1
    outer loop
      vertex 9 -9 10
      vertex 5.774247078195542 -2.391771452281811 10
      vertex 5.196685076890907 -3.4723139563725134 10
    endloop
  endfacet
  facet normal 0 0 1
    outer loop
      vertex 9 -9 10
      vertex 6.129908002520191 -1.2193145126008016 10
      vertex 5.774247078195542 -2.391771452281811 10
    endloop
  endfacet
  facet normal 0 0 1
    outer loop
      vertex 9 -9 10
      vertex 6.25 0 10
      vertex 6.129908002520191 -1.2193145126008016 10
    endloop
  endfacet
  facet normal 0 0 1
    outer loop
      vertex 9 -9 10
      vertex 6.129908002520191 1.2193145126008016 10
      vertex 6.25 0 10
    endloop
  endfacet
  facet normal 0.7071067811865476 0 0.7071067811865476
    outer loop
      vertex 9 -9 10
      vertex 10 -9 9
      vertex 9 9 10
    endloop
  endfacet
  facet normal 0 0 -1
    outer loop
      vertex 9 9 -10
      vertex -0.44107713148302263 2.217444482178185 -10
      vertex -0.8652039161620579 2.0887870286167542 -10
    endloop
  endfacet
  facet normal 0 0 -1
    outer loop
      vertex 9 9 -10
      vertex 0 2.2608867878467005 -10
      vertex -0.44107713148302263 2.217444482178185 -10
    endloop
  endfacet
  facet normal 0 0 -1
    outer loop
      vertex 9 9 -10
      vertex 1.2560813995549314 1.879858660950843 -10
      vertex 0.8652039161620579 2.0887870286167542 -10
    endloop
  endfacet
  facet normal 0 0 -1
    outer loop
      vertex 9 9 -10
      vertex 0.44107713148302263 2.217444482178185 -10
      vertex 0 2.2608867878467005 -10
    endloop
  endfacet
  facet normal 0 0 -1
    outer loop
      vertex 9 9 -10
      vertex 0.8652039161620579 2.0887870286167542 -10
      vertex 0.44107713148302263 2.217444482178185 -10
    endloop
  endfacet
  facet normal 0 0 -1
    outer loop
      vertex 9 9 -10
      vertex 2.0887870286167542 0.8652039161620579 -10
      vertex 1.879858660950843 1.2560813995549314 -10
    endloop
  endfacet
  facet normal 0 0 -1
    outer loop
      vertex 9 9 -10
      vertex 1.5986883791814732 1.5986883791814732 -10
      vertex 1.2560813995549314 1.879858660950843 -10
    endloop
  endfacet
  facet normal 0 0 -1
    outer loop
      vertex 9 9 -10
      vertex 1.879858660950843 1.2560813995549314 -10
      vertex 1.5986883791814732 1.5986883791814732 -10
    endloop
  endfacet
  facet normal 0 0.7071067811865476 -0.7071067811865476
    outer loop
      vertex -9 10 -9
      vertex 9 10 -9
      vertex 9 9 -10
    endloop
  endfacet
  facet normal 0 1 0
    outer loop
      vertex -9 10 -9
      vertex 9 10 9
      vertex 9 10 -9
    endloop
  endfacet
  facet normal 0 0 -1
    outer loop
      vertex 9 -9 -10
      vertex 2.0887870286167542 0.8652039161620579 -10
      vertex 9 9 -10
    endloop
  endfacet
  facet normal 0.7071067811865476 0 -0.7071067811865476
    outer loop
      vertex 10 -9 -9
      vertex 9 9 -10
      vertex 10 9 -9
    endloop
  endfacet
  facet normal 1 0 0
    outer loop
      vertex 10 -9 -9
      vertex 10 9 -9
      vertex 10 9 9
    endloop
  endfacet
  facet normal 0.5773502691896258 0.5773502691896258 -0.5773502691896258
    outer loop
      vertex 9 9 -10
      vertex 9 10 -9
      vertex 10 9 -9
    endloop
  endfacet
  facet normal 0.7071067811865476 0.7071067811865476 0
    outer loop
      vertex 9 10 -9
      vertex 9 10 9
      vertex 10 9 -9
    endloop
  endfacet
  facet normal 0 0 1
    outer loop
      vertex 9 9 10
      vertex -1.2193145126008016 6.129908002520191 10
      vertex 0 6.25 10
    endloop
  endfacet
  facet normal 0 0 1
    outer loop
      vertex 9 9 10
      vertex 0 6.25 10
      vertex 1.2193145126008016 6.129908002520191 10
    endloop
  endfacet
  facet normal 0 0 1
    outer loop
      vertex 9 9 10
      vertex 1.2193145126008016 6.129908002520191 10
      vertex 2.391771452281811 5.774247078195542 10
    endloop
  endfacet
  facet normal 0 0 1
    outer loop
      vertex 9 9 10
      vertex 2.391771452281811 5.774247078195542 10
      vertex 3.4723139563725134 5.196685076890907 10
    endloop
  endfacet
  facet normal 0 0.7071067811865476 0.7071067811865476
    outer loop
      vertex -9 9 10
      vertex 9 9 10
      vertex 9 10 9
    endloop
  endfacet
  facet normal 0 0 1
    outer loop
      vertex 9 9 10
      vertex 5.196685076890907 3.4723139563725134 10
      vertex 5.774247078195542 2.391771452281811 10
    endloop
  endfacet
  facet normal 0 0 1
    outer loop
      vertex 9 9 10
      vertex 5.774247078195542 2.391771452281811 10
      vertex 6.129908002520191 1.2193145126008016 10
    endloop
  endfacet
  facet normal 0 0 1
    outer loop
      vertex 9 -9 10
      vertex 9 9 10
      vertex 6.129908002520191 1.2193145126008016 10
    endloop
  endfacet
  facet normal 0.7071067811865476 0 0.7071067811865476
    outer loop
      vertex 10 -9 9
      vertex 10 9 9
      vertex 9 9 10
    endloop
  endfacet
  facet normal 0.7071067811865476 0.7071067811865476 0
    outer loop
      vertex 10 9 -9
      vertex 9 10 9
      vertex 10 9 9
    endloop
  endfacet
  facet normal 0 0 1
    outer loop
      vertex 9 9 10
      vertex 3.4723139563725134 5.196685076890907 10
      vertex 4.419417382415922 4.419417382415922 10
    endloop
  endfacet
  facet normal 0 0 1
    outer loop
      vertex 9 9 10
      vertex 4.419417382415922 4.419417382415922 10
      vertex 5.196685076890907 3.4723139563725134 10
    endloop
  endfacet
  facet normal 0.5773502691896258 0.5773502691896258 0.5773502691896258
    outer loop
      vertex 9 9 10
      vertex 10 9 9
      vertex 9 10 9
    endloop
  endfacet
endsolid OpenSCAD_Model
